<mxfile host="app.diagrams.net" agent="Mozilla/5.0 (Windows NT 10.0; Win64; x64) AppleWebKit/537.36 (KHTML, like Gecko) Chrome/132.0.0.0 Safari/537.36" version="26.0.13">
  <diagram name="Страница — 1" id="_v5LaGTC0-DqnQ5YdJLc">
    <mxGraphModel dx="989" dy="538" grid="1" gridSize="10" guides="1" tooltips="1" connect="1" arrows="1" fold="1" page="1" pageScale="1" pageWidth="827" pageHeight="1169" math="0" shadow="0">
      <root>
        <mxCell id="0" />
        <mxCell id="1" parent="0" />
        <mxCell id="yWEKpOkfy3Jw7eenvQe8-1" value="Движок" style="shape=umlActor;verticalLabelPosition=bottom;verticalAlign=top;html=1;outlineConnect=0;" vertex="1" parent="1">
          <mxGeometry x="399" y="270" width="30" height="60" as="geometry" />
        </mxCell>
        <mxCell id="yWEKpOkfy3Jw7eenvQe8-7" value="" style="edgeStyle=orthogonalEdgeStyle;rounded=0;orthogonalLoop=1;jettySize=auto;html=1;" edge="1" parent="1" source="yWEKpOkfy3Jw7eenvQe8-2" target="yWEKpOkfy3Jw7eenvQe8-1">
          <mxGeometry relative="1" as="geometry">
            <mxPoint x="245" y="300" as="targetPoint" />
          </mxGeometry>
        </mxCell>
        <mxCell id="yWEKpOkfy3Jw7eenvQe8-10" value="" style="edgeStyle=orthogonalEdgeStyle;rounded=0;orthogonalLoop=1;jettySize=auto;html=1;" edge="1" parent="1" source="yWEKpOkfy3Jw7eenvQe8-2" target="yWEKpOkfy3Jw7eenvQe8-9">
          <mxGeometry relative="1" as="geometry">
            <Array as="points">
              <mxPoint x="195" y="360" />
              <mxPoint x="230" y="360" />
            </Array>
          </mxGeometry>
        </mxCell>
        <mxCell id="yWEKpOkfy3Jw7eenvQe8-2" value="Частотник" style="shape=umlActor;verticalLabelPosition=bottom;verticalAlign=top;html=1;outlineConnect=0;" vertex="1" parent="1">
          <mxGeometry x="180" y="270" width="30" height="60" as="geometry" />
        </mxCell>
        <mxCell id="yWEKpOkfy3Jw7eenvQe8-4" value="Реест\текущих\новых состояний частотников" style="shape=cylinder3;whiteSpace=wrap;html=1;boundedLbl=1;backgroundOutline=1;size=15;" vertex="1" parent="1">
          <mxGeometry x="220" y="490" width="150" height="70" as="geometry" />
        </mxCell>
        <mxCell id="yWEKpOkfy3Jw7eenvQe8-11" value="" style="edgeStyle=orthogonalEdgeStyle;rounded=0;orthogonalLoop=1;jettySize=auto;html=1;" edge="1" parent="1" source="yWEKpOkfy3Jw7eenvQe8-9" target="yWEKpOkfy3Jw7eenvQe8-4">
          <mxGeometry relative="1" as="geometry" />
        </mxCell>
        <mxCell id="yWEKpOkfy3Jw7eenvQe8-9" value="SQL запрос" style="rounded=0;whiteSpace=wrap;html=1;" vertex="1" parent="1">
          <mxGeometry x="170" y="390" width="120" height="60" as="geometry" />
        </mxCell>
        <mxCell id="yWEKpOkfy3Jw7eenvQe8-12" value="Реестр отработанных часов" style="swimlane;fontStyle=0;childLayout=stackLayout;horizontal=1;startSize=30;horizontalStack=0;resizeParent=1;resizeParentMax=0;resizeLast=0;collapsible=1;marginBottom=0;whiteSpace=wrap;html=1;" vertex="1" parent="1">
          <mxGeometry x="600" y="630" width="140" height="60" as="geometry" />
        </mxCell>
        <mxCell id="yWEKpOkfy3Jw7eenvQe8-30" value="Мото часы" style="text;strokeColor=none;fillColor=none;align=left;verticalAlign=middle;spacingLeft=4;spacingRight=4;overflow=hidden;points=[[0,0.5],[1,0.5]];portConstraint=eastwest;rotatable=0;whiteSpace=wrap;html=1;" vertex="1" parent="yWEKpOkfy3Jw7eenvQe8-12">
          <mxGeometry y="30" width="140" height="30" as="geometry" />
        </mxCell>
        <mxCell id="yWEKpOkfy3Jw7eenvQe8-18" value="Анализатор переключения" style="shape=umlActor;verticalLabelPosition=bottom;verticalAlign=top;html=1;outlineConnect=0;" vertex="1" parent="1">
          <mxGeometry x="330" y="720" width="30" height="60" as="geometry" />
        </mxCell>
        <mxCell id="yWEKpOkfy3Jw7eenvQe8-28" value="Схема подключений частотников и движков" style="ellipse;whiteSpace=wrap;html=1;" vertex="1" parent="1">
          <mxGeometry x="120" y="820" width="110" height="80" as="geometry" />
        </mxCell>
        <mxCell id="yWEKpOkfy3Jw7eenvQe8-29" value="Физические формулы просчёта выходной мощности" style="ellipse;whiteSpace=wrap;html=1;" vertex="1" parent="1">
          <mxGeometry x="90" y="670" width="140" height="100" as="geometry" />
        </mxCell>
        <mxCell id="yWEKpOkfy3Jw7eenvQe8-33" value="" style="edgeStyle=orthogonalEdgeStyle;rounded=0;orthogonalLoop=1;jettySize=auto;html=1;" edge="1" parent="1" source="yWEKpOkfy3Jw7eenvQe8-32" target="yWEKpOkfy3Jw7eenvQe8-4">
          <mxGeometry relative="1" as="geometry" />
        </mxCell>
        <mxCell id="yWEKpOkfy3Jw7eenvQe8-32" value="обновление оптимального решения реестра" style="rounded=0;whiteSpace=wrap;html=1;" vertex="1" parent="1">
          <mxGeometry x="270" y="610" width="120" height="60" as="geometry" />
        </mxCell>
        <mxCell id="yWEKpOkfy3Jw7eenvQe8-34" value="Реестр тех обслуживания" style="swimlane;fontStyle=0;childLayout=stackLayout;horizontal=1;startSize=30;horizontalStack=0;resizeParent=1;resizeParentMax=0;resizeLast=0;collapsible=1;marginBottom=0;whiteSpace=wrap;html=1;" vertex="1" parent="1">
          <mxGeometry x="540" y="760" width="140" height="90" as="geometry">
            <mxRectangle x="600" y="750" width="180" height="30" as="alternateBounds" />
          </mxGeometry>
        </mxCell>
        <mxCell id="yWEKpOkfy3Jw7eenvQe8-35" value="id движка" style="text;strokeColor=none;fillColor=none;align=left;verticalAlign=middle;spacingLeft=4;spacingRight=4;overflow=hidden;points=[[0,0.5],[1,0.5]];portConstraint=eastwest;rotatable=0;whiteSpace=wrap;html=1;" vertex="1" parent="yWEKpOkfy3Jw7eenvQe8-34">
          <mxGeometry y="30" width="140" height="30" as="geometry" />
        </mxCell>
        <mxCell id="yWEKpOkfy3Jw7eenvQe8-36" value="Дата тех обслуживания" style="text;strokeColor=none;fillColor=none;align=left;verticalAlign=middle;spacingLeft=4;spacingRight=4;overflow=hidden;points=[[0,0.5],[1,0.5]];portConstraint=eastwest;rotatable=0;whiteSpace=wrap;html=1;" vertex="1" parent="yWEKpOkfy3Jw7eenvQe8-34">
          <mxGeometry y="60" width="140" height="30" as="geometry" />
        </mxCell>
        <mxCell id="yWEKpOkfy3Jw7eenvQe8-13" value="id движка" style="text;strokeColor=none;fillColor=none;align=left;verticalAlign=middle;spacingLeft=4;spacingRight=4;overflow=hidden;points=[[0,0.5],[1,0.5]];portConstraint=eastwest;rotatable=0;whiteSpace=wrap;html=1;" vertex="1" parent="1">
          <mxGeometry x="530" y="670" width="140" height="30" as="geometry" />
        </mxCell>
      </root>
    </mxGraphModel>
  </diagram>
</mxfile>
